<svg xmlns="http://www.w3.org/2000/svg" viewBox="0 0 192.27 48.87"><g data-name="Capa 2"><path d="M122 45.71c-3-.74-3-4-3-7.06v-24.6h9.73v-1.3H119V0h-1.71c-.74 5.58-4.11 10.75-8.66 12.75v1.3h5v24.6c0 5.33 0 10.22 6.58 10.22 3.81 0 6.5-1.75 9.74-5.36l-.85-1c-1.97 1.87-4.1 3.95-7.1 3.2zM94.83 26.88c-5.39-1.69-10.27-3.39-10.27-7.88 0-3.46 3.8-5.62 6.89-5.62 6.43 0 10.61 6.28 13.56 10.06l1.15-.62-3.59-10.09c-3.66 3-5.7-.66-10.7-.66-5.76 0-11.09 3.81-11.09 10 0 6.87 6.41 8.86 12.6 10.79 5.39 1.68 10.47 3.26 10.47 8a6.81 6.81 0 01-7 6.66c-5.91 0-12.81-6.4-15.66-10.82l-1.19.62 4.43 10.9a5.78 5.78 0 014.21-1.38c1.9.19 4.47 2 8.17 2 5.45 0 11-4.37 11-10.64.03-7.03-6.81-9.4-12.98-11.32zM74.76 44.44c-2.5-.25-2.44-3.24-2.44-5.6V22.58c0-3.07 0-6-2.47-8s-6.29-2.47-9.06-2.47c-4 0-12.93 2-12.93 8a2.64 2.64 0 002.92 2.7c2.36 0 3.14-1.16 3.76-3.3.66-2.59 2.07-6.06 6.62-6.06 5.76 0 5.76 6.36 5.76 8.44v5.31s-20.47 1.63-20.47 13.4c0 4.95 3.29 8.27 8.19 8.27 7 0 12.28-5.43 12.28-5.43s.35 4.78 4.63 4.78c3.21 0 5.46-2.56 7.07-4.87l-1.06-.78s-1.21 2.03-2.8 1.87zm-7.84-2.79s-4.17 4.41-8.58 4.41a5.93 5.93 0 01-6-6.27c0-8.87 14.55-11.29 14.55-11.29zm121.84 2.79c-2.79 0-2.79-3.64-2.79-5.6V22.58c0-3.07 0-6-2.47-8s-6.29-2.47-9.06-2.47c-4.05 0-12.93 2-12.93 8a2.64 2.64 0 002.92 2.7c2.36 0 3.14-1.16 3.76-3.3.66-2.59 2.07-6.06 6.62-6.06 5.76 0 5.76 6.36 5.76 8.44v5.31s-20.47 1.63-20.47 13.4c0 4.95 3.29 8.27 8.19 8.27 7 0 12.31-5.43 12.31-5.43s.32 4.78 4.6 4.78c3.21 0 5.46-2.56 7.07-4.87l-1.06-.78s-1.28 1.87-2.45 1.87zm-8.19-2.79s-4.17 4.41-8.58 4.41a5.93 5.93 0 01-6-6.27c0-8.87 14.55-11.29 14.55-11.29zm-25.38-29.56c-7.3 0-11.89 7.77-12.73 10v-10l-11.1 4.25v1.3c4.49.15 5.7 1.68 5.7 6.39v14.59c0 6.74-.81 7.64-5.7 8.29v1.31h16.88v-1.31c-5-.65-5.78-1.55-5.78-8.29V27.84c0-4.73 2.72-10.34 7.91-10.34 2.72 0 3.2 1.17 5.6 1.17 4.82 0 4.12-6.58-.78-6.58zM9.79 22.82a4.06 4.06 0 011.44 3.28 4.43 4.43 0 01-.74 2.55 4.27 4.27 0 01-2.15 1.58v.05a4.18 4.18 0 013.27 4.19A4.51 4.51 0 0110.1 38a6.15 6.15 0 01-4.2 1.32H0V21.61h5.5a6.57 6.57 0 014.29 1.21zm-8.17 6.76h3.66a5 5 0 003.28-.87 3 3 0 001-2.39Q9.59 23 5.36 23H1.62zm0 8.35H5.7A4.79 4.79 0 008.85 37a3.18 3.18 0 001.06-2.6 3.07 3.07 0 00-1.12-2.5 5.57 5.57 0 00-3.51-.9H1.62zm20.54 1.42h-1.64v-7.57L14 21.61h1.92l2.44 3.84 3 4.76h.05c1.33-2.13 2.34-3.71 3-4.76l2.41-3.84h1.92l-6.58 10.17z" data-name="Layer 1"/></g></svg>