<svg xmlns="http://www.w3.org/2000/svg" viewBox="0 0 52.51 54.49"><defs><style>.cls-1{fill:#1d1d1b;}</style></defs><title>Recurso 2</title><g id="Capa_2" data-name="Capa 2"><g id="Layer_1" data-name="Layer 1"><path class="cls-1" d="M17.76,25.85a11.47,11.47,0,0,0,1.71-.12,1.37,1.37,0,0,0,1.06-.85,1.35,1.35,0,0,0-.15-1.36,10,10,0,0,0-1.12-1.29l-9.7-9.71-.86.86,9.71,9.7a11.23,11.23,0,0,1,1,1.15.19.19,0,0,1,0,.18.18.18,0,0,1-.14.12,10.14,10.14,0,0,1-1.52.11H0v1.21Zm.8,7.12a18,18,0,0,0,1.64-2,1.44,1.44,0,0,0,.14-1.42,1.42,1.42,0,0,0-1.13-.84,11.06,11.06,0,0,0-1.45-.09H0v1.21H17.76a10.26,10.26,0,0,1,1.29.08.21.21,0,0,1,.18.13.22.22,0,0,1,0,.24,15.09,15.09,0,0,1-1.51,1.82L8,41.81l.86.86Zm6.3,3.76a17.16,17.16,0,0,0-.21-2.4,1.44,1.44,0,0,0-2.27-.93A16.89,16.89,0,0,0,20.53,35l-9.7,9.7.86.85,9.68-9.68a15.62,15.62,0,0,1,1.72-1.44.24.24,0,0,1,.13-.05.23.23,0,0,1,.23.2,15.76,15.76,0,0,1,.2,2.22V54.49h1.21ZM21.23,20.25a13.36,13.36,0,0,0,1.09,1,1.41,1.41,0,0,0,.87.3,1.46,1.46,0,0,0,1.43-1.21,17.16,17.16,0,0,0,.24-2.56V0H23.65V17.73a17.43,17.43,0,0,1-.22,2.37.24.24,0,0,1-.24.21.26.26,0,0,1-.13,0,12.24,12.24,0,0,1-1-.86l-9.7-9.71-.86.86Zm13.52,5.6A11.47,11.47,0,0,1,33,25.73a1.42,1.42,0,0,1-.91-2.21,10,10,0,0,1,1.12-1.29L43,12.52l.86.86-9.7,9.7a9.22,9.22,0,0,0-1,1.15.17.17,0,0,0,0,.18.18.18,0,0,0,.13.12,10.14,10.14,0,0,0,1.52.11H52.51v1.21ZM34,33a16.8,16.8,0,0,1-1.63-2,1.43,1.43,0,0,1,1-2.26,11.06,11.06,0,0,1,1.45-.09H52.51v1.21H34.75a10.38,10.38,0,0,0-1.29.08.21.21,0,0,0-.18.13.22.22,0,0,0,0,.24,16.1,16.1,0,0,0,1.51,1.82l9.69,9.69-.85.86Zm-6.3,3.76a18.72,18.72,0,0,1,.22-2.4,1.43,1.43,0,0,1,2.26-.93A16.89,16.89,0,0,1,32,35l9.7,9.7-.86.85-9.68-9.68a15.62,15.62,0,0,0-1.72-1.44.24.24,0,0,0-.13-.05.23.23,0,0,0-.23.2,17.41,17.41,0,0,0-.2,2.22V54.49H27.65Zm3.63-16.48a11.88,11.88,0,0,1-1.09,1,1.41,1.41,0,0,1-.87.3,1.46,1.46,0,0,1-1.43-1.21,18.6,18.6,0,0,1-.24-2.56V0h1.21V17.73a17.43,17.43,0,0,0,.22,2.37.25.25,0,0,0,.24.21.24.24,0,0,0,.13,0,10.7,10.7,0,0,0,1-.86l9.71-9.71.85.86Z"/></g></g></svg>