<svg xmlns="http://www.w3.org/2000/svg" viewBox="0 0 676.86 63.84"><g data-name="Layer 2"><path d="M39 50.61H0v-2c5.74 0 6.65-.35 6.65-4.83V9.24c0-4.49-.91-4.83-6.3-4.83v-2H38l.42 17.3h-1.88C35.14 7.07 30 4.41 21 4.41c-6.37 0-9 1-9 4.06v16h4.2c5.6 0 7.28-3.29 7.42-8.4h2v18.72h-2c-.14-5.11-1.82-8.4-7.42-8.4H12v19.32c0 2.24 2 2.94 7.63 2.94 12 0 16.38-4.34 17.92-16.24h1.89zm32.4 0V26.53c0-4.76-2-7.7-7.07-7.7-5.95 0-9.31 7.35-9.31 12.39v14.63c0 2.1 1.12 2.8 5.6 2.8v2H44.31v-2c4.83 0 5.95-.7 5.95-2.8V22.47c0-2.1-1.12-2.8-5.53-2.8v-2L55 17.29v6.16h.14c2.73-4.27 5.46-6.58 10.78-6.58 6 0 10.22 3.43 10.22 9.66v19.32c0 2.1.84 2.8 5.46 2.8v2zm43.16-32.9v2c-3.85 0-4.48.49-6 4.34L98.25 50.61h-2L85.58 23.66c-1.4-3.64-2.1-4-5.6-4v-2h15.26v2c-4.62 0-5.32.42-5.32 2 0 1.82 3.92 9.45 8.4 22.33h.14c5.18-13.72 8.12-20.16 8.12-22.12 0-1.68-.84-2.24-5.18-2.24v-2zM133 50.61h-16.54v-2c4.91 0 6-.7 6-2.8V22.47c0-2.1-1.12-2.8-5.54-2.8v-2l10.3-.42v28.6c0 2.1 1.12 2.8 5.74 2.8zM127.67 6.3a3.36 3.36 0 01-6.72 0 3.36 3.36 0 116.72 0zm13.9 16.17c0-2.1-1.12-2.8-5.54-2.8v-2l10.3-.42v8.4h.14c1.61-4.06 4.13-8.82 9.17-8.82 2.8 0 5.39 1.68 5.39 4.83a3.15 3.15 0 01-3.22 3.43 2.92 2.92 0 01-3.22-3.09 2.94 2.94 0 011.68-2.8 1.29 1.29 0 00-1.05-.35c-1.82 0-6.09 2.1-7.91 10.15-1 4.41-1 10.92-1 15.47 0 3.5 1.12 4.2 6.3 4.2v2H136v-2c4.49 0 5.61-.7 5.61-2.8zm21.68 11.69c0-8.75 5.67-17.29 15.19-17.29s15.19 8.54 15.19 17.29-5.63 17.29-15.19 17.29-15.19-8.54-15.19-17.29zm25.06 0c0-9.87-3.08-15.33-9.87-15.33s-9.87 5.46-9.87 15.33 3.08 15.33 9.87 15.33 9.87-5.49 9.87-15.33zm34.09 16.45V26.53c0-4.76-2-7.7-7.07-7.7-6 0-9.32 7.35-9.32 12.39v14.63c0 2.1 1.12 2.8 5.61 2.8v2H195.3v-2c4.83 0 5.95-.7 5.95-2.8V22.47c0-2.1-1.12-2.8-5.53-2.8v-2l10.28-.38v6.16h.14c2.73-4.27 5.47-6.58 10.79-6.58 6 0 10.22 3.43 10.22 9.66v19.32c0 2.1.84 2.8 5.46 2.8v2zm58.32-23.1c0-5.32-2-8.68-6.23-8.68-4.83 0-8.75 4.76-8.75 9.66v17.36c0 2.1 1.12 2.8 5.74 2.8v2H261V27.51c0-5.32-2-8.68-6.23-8.68-4.83 0-8.75 4.76-8.75 9.66v17.36c0 2.1 1.12 2.8 5.6 2.8v2h-16.33v-2c4.83 0 6-.7 6-2.8V22.47c0-2.1-1.12-2.8-5.53-2.8v-2l10.22-.42v4.83h.14c2.52-3.36 4.9-5.25 9.24-5.25 5.18 0 8.61 2.52 10.08 6.37 2.45-4.83 6.37-6.37 9.73-6.37 6.65 0 10.36 4.06 10.36 10.22v18.8c0 2.1 1.12 2.8 5.74 2.8v2h-10.5zM298 33.39v2c0 7.84 3.78 14.07 10.71 14.07 6.09 0 8.47-2.8 11.13-6.72l1.68 1.12c-4.2 6.16-7.49 7.56-13.37 7.56-9.59 0-15.47-8.54-15.47-17.29 0-10.22 5.67-17.29 15.19-17.29 8.68 0 13.65 8.26 13.65 16.52zm18.2-2c0-5.74-1.75-12.6-8.89-12.6-6.44 0-9.31 6.51-9.31 12.6zm34.41 19.22V26.53c0-4.76-2-7.7-7.07-7.7-6 0-9.31 7.35-9.31 12.39v14.63c0 2.1 1.12 2.8 5.6 2.8v2h-16.32v-2c4.83 0 5.95-.7 5.95-2.8V22.47c0-2.1-1.12-2.8-5.53-2.8v-2l10.3-.42v6.16h.14c2.73-4.27 5.46-6.58 10.78-6.58 6 0 10.22 3.43 10.22 9.66v19.36c0 2.1.84 2.8 5.46 2.8v2zm30.14-33.74v2h-10.5v24.81c0 4.34 2.1 5.81 4.55 5.81 2 0 5.11-1.54 5.11-7.07v-3h2v2.52c0 5.6-2.59 9.52-8.33 9.52-5.11 0-8.05-2.8-8.05-8.12V18.83h-5.18v-2c5.88 0 7.56-5.74 8-10.5h2v10.5zM440.81 43q-6.87 8.48-16.94 8.47a18.94 18.94 0 01-8.44-1.78 13.4 13.4 0 01-5.56-4.91 13 13 0 01-2-7.1 12.89 12.89 0 012.94-8.51q2.94-3.52 9.31-6.61a31.5 31.5 0 01-5.43-6.62 12.33 12.33 0 01-1.32-5.94 9.62 9.62 0 012.9-7.18 11.18 11.18 0 0114.91 0 9.93 9.93 0 012.82 7.33 11.56 11.56 0 01-2.24 7.21q-2.25 2.94-7.63 5.67l16.38 16q3.92-6.51 3.92-16.17h2.66q0 10.58-4.76 18l9.94 9.73h-3.71zm-1.75-1.75l-17.22-17.1q-6.16 3-8.68 6a11.27 11.27 0 00-2.52 7.49 10.37 10.37 0 003.6 8.19q3.6 3.15 9.63 3.15 9.13.02 15.19-7.75zm-21.91-26.1a32 32 0 005.32 6.27q5.17-2.52 7.14-5.11a10 10 0 002-6.16 7.6 7.6 0 00-2.17-5.6A8.69 8.69 0 00418 4.48a7.33 7.33 0 00-2.18 5.52 10.18 10.18 0 001.33 5.15zM500.9 4.17q4.16 4.16 4.16 12.28h-2.66q0-14-13.93-14-5.73 0-9 2.76a9.42 9.42 0 00-3.29 7.6 8.83 8.83 0 001.44 5.28 9.91 9.91 0 004.23 3.22 47.65 47.65 0 007.77 2.42 55.28 55.28 0 019.21 2.87 12.34 12.34 0 015.17 4.13 12.23 12.23 0 011.89 7.21 12.08 12.08 0 01-4.34 9.83q-4.33 3.61-11.83 3.61-8.33 0-12.74-4.38t-4.41-13h2.66q0 7.63 3.71 11.3t10.78 3.68q6.45 0 10-2.91a9.86 9.86 0 003.53-8.08 9.35 9.35 0 00-1.54-5.71 10.16 10.16 0 00-4.42-3.28 61.34 61.34 0 00-8.29-2.54 46.74 46.74 0 01-8.78-2.87 12.25 12.25 0 01-5-4.1 11.64 11.64 0 01-1.75-6.68 11.74 11.74 0 014.06-9.28Q481.62 0 488.47 0q8.27 0 12.43 4.17zm37.65 15.04q4.17 4.93 4.17 13.62t-4.17 13.61q-4.17 4.94-11.44 4.94t-11.41-4.94q-4.14-4.94-4.13-13.61t4.13-13.62q4.13-4.94 11.41-4.93t11.44 4.93zm-21 1.69q-3.44 4.29-3.43 11.93t3.43 11.93a12.75 12.75 0 0019.11 0q3.42-4.29 3.43-11.93T536.7 20.9a12.75 12.75 0 00-19.11 0zm55.27-3.16a13.39 13.39 0 014.27 9.07h-2.66a10.74 10.74 0 00-3.43-7.39 10.93 10.93 0 00-7.7-2.83 11.22 11.22 0 00-9.3 4.31q-3.4 4.29-3.4 11.93t3.4 11.93a11.25 11.25 0 009.34 4.31 10.51 10.51 0 007.67-3 11.7 11.7 0 003.46-7.59h2.66a13.91 13.91 0 01-4.27 9.31 13.31 13.31 0 01-9.52 3.57q-7.14 0-11.23-4.94T548 32.83q0-8.68 4.1-13.62t11.23-4.93a13.58 13.58 0 019.49 3.46zm11.34-11.3V.77h2.52v5.67zm0 44.17V15.05h2.52v35.56zm33.23-3.92a10.24 10.24 0 003.82-6.58h2.66a13.07 13.07 0 01-4.62 8.12 16.13 16.13 0 01-18 .8 14.84 14.84 0 01-5.42-6.72A25.47 25.47 0 01594 32.13a22.1 22.1 0 011.85-9.35 14.55 14.55 0 015.29-6.26 14.4 14.4 0 018-2.24 14.09 14.09 0 019.69 3.43 15.69 15.69 0 014.94 9.38 32.18 32.18 0 01.42 5.95H596.5q.06 7.56 3.64 11.83a11.7 11.7 0 009.45 4.27 12.26 12.26 0 007.8-2.45zM600.14 20.4q-3.36 3.88-3.64 10.4h25.27q-.21-6.72-3.64-10.5a11.55 11.55 0 00-9-3.78 11.33 11.33 0 00-8.99 3.88zm42.56 27.76v2.31a13.61 13.61 0 01-2.73.28q-3.91 0-5.67-2c-1.16-1.35-1.75-3.59-1.75-6.72V17.29h-6.65v-2.24h6.65V6.86h2.52v8.19h7.28v2.24h-7.28V42q0 3.49 1.19 5a4.87 4.87 0 004 1.47 9.87 9.87 0 002.44-.31zm15.58 11.06a10.42 10.42 0 01-3.85 3.6 11.58 11.58 0 01-5.15 1 8 8 0 01-2.66-.42v-2.29a8 8 0 002.66.42 9.16 9.16 0 004.17-.84 8.57 8.57 0 003.11-3.15 43.35 43.35 0 003.29-6.86l-14.07-35.63h2.73l12.6 32.27h.07l13-32.27h2.73l-14.82 36.61a41.43 41.43 0 01-3.81 7.56z" fill="#fff" data-name="Layer 1"/></g></svg>