<svg xmlns="http://www.w3.org/2000/svg" viewBox="0 0 52.51 54.49"><g data-name="Layer 2"><path d="M17.76 25.85a11.47 11.47 0 001.71-.12 1.37 1.37 0 001.06-.85 1.35 1.35 0 00-.15-1.36 10 10 0 00-1.12-1.29l-9.7-9.71-.86.86 9.71 9.7a11.23 11.23 0 011 1.15.19.19 0 010 .18.18.18 0 01-.14.12 10.14 10.14 0 01-1.52.11H0v1.21zm.8 7.12a18 18 0 001.64-2 1.44 1.44 0 00.14-1.42 1.42 1.42 0 00-1.13-.84 11.06 11.06 0 00-1.45-.09H0v1.21h17.76a10.26 10.26 0 011.29.08.21.21 0 01.18.13.22.22 0 010 .24 15.09 15.09 0 01-1.51 1.82L8 41.81l.86.86zm6.3 3.76a17.16 17.16 0 00-.21-2.4 1.44 1.44 0 00-2.27-.93 16.89 16.89 0 00-1.85 1.6l-9.7 9.7.86.85 9.68-9.68a15.62 15.62 0 011.72-1.44.24.24 0 01.13-.05.23.23 0 01.23.2 15.76 15.76 0 01.2 2.22v17.69h1.21zm-3.63-16.48a13.36 13.36 0 001.09 1 1.41 1.41 0 00.87.3 1.46 1.46 0 001.43-1.21 17.16 17.16 0 00.24-2.56V0h-1.21v17.73a17.43 17.43 0 01-.22 2.37.24.24 0 01-.24.21.26.26 0 01-.13 0 12.24 12.24 0 01-1-.86l-9.7-9.71-.86.86zm13.52 5.6a11.47 11.47 0 01-1.75-.12 1.42 1.42 0 01-.91-2.21 10 10 0 011.12-1.29L43 12.52l.86.86-9.7 9.7a9.22 9.22 0 00-1 1.15.17.17 0 000 .18.18.18 0 00.13.12 10.14 10.14 0 001.52.11h17.7v1.21zM34 33a16.8 16.8 0 01-1.63-2 1.43 1.43 0 011-2.26 11.06 11.06 0 011.45-.09h17.69v1.21H34.75a10.38 10.38 0 00-1.29.08.21.21 0 00-.18.13.22.22 0 000 .24 16.1 16.1 0 001.51 1.82l9.69 9.69-.85.86zm-6.3 3.76a18.72 18.72 0 01.22-2.4 1.43 1.43 0 012.26-.93A16.89 16.89 0 0132 35l9.7 9.7-.86.85-9.68-9.68a15.62 15.62 0 00-1.72-1.44.24.24 0 00-.13-.05.23.23 0 00-.23.2 17.41 17.41 0 00-.2 2.22v17.69h-1.23zm3.63-16.48a11.88 11.88 0 01-1.09 1 1.41 1.41 0 01-.87.3 1.46 1.46 0 01-1.43-1.21 18.6 18.6 0 01-.24-2.56V0h1.21v17.73a17.43 17.43 0 00.22 2.37.25.25 0 00.24.21.24.24 0 00.13 0 10.7 10.7 0 001-.86l9.71-9.71.85.86z" fill="#fff" data-name="Layer 1"/></g></svg>